<?xml version="1.0" standalone="no"?>
<!DOCTYPE svg PUBLIC "-//W3C//DTD SVG 20010904//EN"
 "http://www.w3.org/TR/2001/REC-SVG-20010904/DTD/svg10.dtd">
<svg version="1.0" xmlns="http://www.w3.org/2000/svg"
 width="1000.000000pt" height="1000.000000pt" viewBox="0 0 1000.000000 1000.000000"
 preserveAspectRatio="xMidYMid meet">
<metadata>
Created by potrace 1.14, written by Peter Selinger 2001-2017
</metadata>
<g transform="translate(0.000000,1000.000000) scale(0.100000,-0.100000)"
fill="#000000" stroke="none">
<path d="M4615 9989 c-1589 -130 -2987 -973 -3843 -2316 -443 -696 -703 -1494
-763 -2338 -16 -235 -7 -668 20 -895 98 -822 368 -1556 822 -2230 621 -923
1530 -1613 2582 -1961 334 -110 656 -179 1052 -226 235 -27 827 -25 1070 5
1033 126 1931 517 2705 1178 146 124 406 385 534 534 701 818 1116 1823 1196
2900 13 173 13 547 0 720 -116 1558 -931 2948 -2235 3815 -664 442 -1398 705
-2230 802 -155 17 -747 26 -910 12z m615 -204 c821 -25 1677 -301 2395 -772
769 -504 1371 -1209 1747 -2043 206 -456 326 -896 395 -1445 25 -201 25 -848
0 -1050 -75 -605 -219 -1093 -473 -1605 -422 -850 -1069 -1540 -1894 -2020
-572 -332 -1190 -534 -1885 -617 -188 -22 -806 -25 -980 -5 -330 38 -592 88
-855 163 -1167 335 -2161 1100 -2794 2149 -383 634 -611 1361 -667 2125 -22
308 -2 779 46 1085 185 1157 779 2199 1680 2944 296 245 571 424 925 600 513
255 1025 405 1603 472 132 15 489 33 552 27 17 -1 109 -5 205 -8z"/>
<path d="M7024 8716 c-50 -22 -98 -71 -278 -281 -315 -367 -554 -668 -877
-1100 l-187 -252 -169 -7 c-379 -15 -1055 -67 -1458 -112 -928 -103 -1576
-235 -2101 -429 -630 -233 -1120 -601 -1290 -969 -185 -402 24 -723 546 -840
130 -29 259 -39 470 -39 304 1 585 36 979 120 115 25 125 29 142 57 29 48 1
106 -50 106 -15 0 -103 -16 -196 -35 -693 -144 -1256 -135 -1570 22 -93 47
-195 149 -218 217 -21 63 -22 176 -1 247 81 277 413 583 893 826 541 274 1257
443 2416 572 382 43 930 88 1285 106 63 3 139 8 168 11 l53 6 -66 -94 c-80
-114 -562 -836 -628 -942 -40 -64 -52 -76 -74 -76 -15 0 -122 -14 -238 -31
-893 -130 -1299 -274 -1397 -496 -35 -78 -4 -158 80 -211 160 -101 457 -109
812 -22 165 41 197 62 151 104 -18 16 -24 16 -107 -8 -359 -100 -702 -98 -826
4 -31 26 -38 38 -38 68 0 157 351 311 960 421 139 25 433 70 546 83 l31 4
-110 -180 c-718 -1179 -1249 -2288 -1482 -3096 -51 -177 -97 -378 -110 -485
-9 -64 18 -105 69 -105 50 0 64 24 86 153 45 267 172 682 323 1057 278 693
742 1591 1233 2392 75 123 145 237 156 254 18 31 20 31 136 43 147 14 385 32
388 28 1 -1 -33 -60 -77 -131 -126 -205 -366 -605 -483 -807 l-107 -185 -52
-20 c-76 -29 -164 -89 -182 -125 -22 -42 -12 -73 34 -107 l39 -28 -100 -180
c-150 -269 -400 -764 -452 -896 -55 -138 -67 -206 -41 -232 23 -23 74 -17 92
11 13 19 12 24 -6 42 l-21 21 41 108 c51 129 282 588 439 872 62 113 114 207
116 208 1 2 62 -32 136 -75 179 -107 477 -271 798 -440 882 -465 1279 -694
1675 -968 284 -196 578 -433 775 -624 124 -121 131 -129 80 -99 -149 86 -404
302 -576 485 -47 51 -94 93 -103 93 -22 0 -41 -19 -41 -40 0 -37 332 -360 508
-494 101 -77 231 -155 288 -173 49 -15 54 -15 78 1 57 37 34 75 -156 261 -461
452 -1076 874 -1973 1355 -115 62 -329 175 -475 253 -445 235 -970 529 -970
542 0 10 104 181 114 187 18 12 245 94 506 183 762 258 1304 482 1540 637 95
62 166 136 180 187 10 38 9 48 -12 89 -20 41 -33 52 -98 84 -174 87 -619 128
-1175 108 -93 -3 -171 -5 -173 -4 -2 1 52 84 118 184 116 175 122 182 136 161
30 -43 60 -19 94 75 34 95 17 146 -43 130 -33 -8 -119 -118 -260 -331 -58 -88
-117 -176 -130 -196 l-25 -36 -133 -7 c-74 -4 -187 -13 -251 -19 -65 -7 -118
-11 -118 -9 0 8 305 471 427 650 265 385 300 431 336 436 58 10 766 26 1113
26 965 -1 1774 -58 1774 -126 0 -24 47 -64 75 -64 38 0 85 50 85 90 0 17 -5
40 -10 51 -48 89 -466 152 -1185 179 -317 12 -1199 12 -1535 1 -129 -5 -236
-7 -238 -6 -3 3 307 414 476 630 162 207 364 452 527 639 72 82 140 161 153
175 l22 26 -6 -30 c-11 -55 -69 -179 -126 -270 -82 -130 -173 -240 -339 -410
-81 -82 -148 -157 -149 -165 -7 -51 23 -90 70 -90 24 0 50 19 136 103 338 325
587 731 559 913 -13 92 -88 136 -171 100z m-549 -2896 c346 -26 545 -83 545
-156 0 -56 -133 -160 -329 -259 -294 -147 -662 -292 -1311 -515 -157 -54 -322
-111 -368 -128 l-82 -31 27 47 c160 281 495 836 582 967 l46 70 115 6 c210 10
633 9 775 -1z m-1755 -1289 c-11 -22 -24 -43 -30 -46 -11 -7 -40 11 -40 25 0
6 76 58 88 60 1 0 -7 -18 -18 -39z"/>
</g>
</svg>
